<?xml version="1.0" encoding="utf-8"?>
<!-- Generator: Adobe Illustrator 19.0.0, SVG Export Plug-In . SVG Version: 6.00 Build 0)  -->
<svg version="1.1" id="Capa_1" xmlns="http://www.w3.org/2000/svg" xmlns:xlink="http://www.w3.org/1999/xlink" x="0px" y="0px"
	 viewBox="-289 381.2 31.8 31.8" style="enable-background:new -289 381.2 31.8 31.8;" xml:space="preserve">
<g>
	<g>
		<path fill="white" d="M-286.9,396.9c0,0,0.4-0.9-0.2-1.8c-0.6-1-1.6-1.1-1.6-1.1s-0.4,1,0.2,2C-288,396.8-286.9,396.9-286.9,396.9z"/>
		<path fill="white" d="M-285.2,397.1c0,0,1-0.3,1.4-1.4c0.4-1-0.3-2-0.3-2s-0.9,0.4-1.3,1.5C-285.8,396.3-285.2,397.1-285.2,397.1z"/>
		<path fill="white" d="M-284.8,398.2c-0.2,1.1,0.5,1.8,0.5,1.8s0.9-0.4,1.2-1.5c0.2-1.1-0.6-1.9-0.6-1.9S-284.6,397.1-284.8,398.2z"/>
		<path fill="white" d="M-282.6,402c0,0,0.9-0.5,1-1.6c0.1-1.1-0.7-1.8-0.7-1.8s-0.8,0.6-0.9,1.7C-283.4,401.4-282.6,402-282.6,402z"/>
		<path fill="white" d="M-280.3,403.8c0,0,0.7-0.8,0.5-1.9c-0.2-1.1-1.2-1.5-1.2-1.5s-0.6,0.8-0.4,1.9C-281.2,403.4-280.3,403.8-280.3,403.8z"/>
		<path fill="white" d="M-286.1,394.6c0,0,0.8-0.5,0.8-1.6c0-1.1-0.7-1.8-0.7-1.8s-1,0.6-1,1.7C-286.9,394-286.1,394.6-286.1,394.6z"/>
		<path fill="white" d="M-286.4,399.2c0,0,0.1-1-0.7-1.7c-0.9-0.7-1.9-0.6-1.9-0.6s-0.1,1.1,0.7,1.8C-287.4,399.4-286.4,399.2-286.4,399.2z"/>
		<path fill="white" d="M-285.1,401.4c0,0-0.1-1-1.1-1.5c-1-0.5-1.9-0.2-1.9-0.2s0.1,1.1,1.1,1.6C-286,401.8-285.1,401.4-285.1,401.4z"/>
		<path fill="white" d="M-285,402c-1.1-0.2-1.9,0.4-1.9,0.4s0.5,1,1.6,1.2c1.1,0.2,1.9-0.5,1.9-0.5S-283.9,402.1-285,402z"/>
		<path fill="white" d="M-282.8,403.7c-1.1,0-1.8,0.6-1.8,0.6s0.6,1,1.7,1c1.1,0,1.8-0.8,1.8-0.8S-281.7,403.8-282.8,403.7z"/>
		<path fill="white" d="M-285.8,395.2l-0.5-0.1c0,0.1-1.2,5.8,7,10l0.2-0.5C-287,400.6-285.9,395.4-285.8,395.2z"/>
		<path fill="white" d="M-267.8,406.9h-0.5v-5.8h0.5v-0.9h-0.6v-0.6c0,0-4.2-0.8-4.2-2.5c0-0.6,0.5-1.2,1.2-2l0.2,0.5l1.1-0.4l-0.1-0.2
			c1.8,0.1,3.3-0.4,4.5-1.4c2.9-2.7,2.6-8,2.6-8.2l0-0.6h-3.4l0.2,0.7c0.1,0.3,0,0.6-0.1,0.8c-0.4,0.6-1.3,0.9-1.7,1h0
			c0-0.2,0-0.4,0-0.7h0.8v-0.9h-5.8v0h-5.8v0.9h0.8c0,0.2,0,0.5,0,0.7h0c-0.3-0.1-1.3-0.4-1.7-1c-0.2-0.2-0.2-0.5-0.1-0.8l0.2-0.7
			h-3.4l0,0.6c0,0.2-0.3,5.5,2.6,8.2c1.2,1.1,2.7,1.6,4.5,1.4l-0.1,0.2l1.1,0.4l0.2-0.5c0.7,0.8,1.2,1.4,1.2,2
			c0,1.7-4.2,2.5-4.2,2.5v0.6h-0.6v0.9h0.5v5.8h-0.5v1h-0.4v1.4h5.7v0h5.7v-1.4h-0.4V406.9z M-268.3,388.9h0.8v-0.5
			c0.6-0.2,1.4-0.6,1.9-1.3c0.2-0.3,0.3-0.6,0.3-1h0.9c0,1.4-0.2,4.9-2.2,6.7c-1,0.9-2.3,1.3-3.9,1.1
			C-269.5,392.6-268.6,391.1-268.3,388.9z M-279.7,392.7c-2-1.8-2.2-5.3-2.2-6.7h0.9c0,0.4,0.1,0.7,0.3,1c0.5,0.8,1.4,1.2,1.9,1.3
			v0.5h0.8c0.3,2.2,1.2,3.8,2.1,5C-277.4,394-278.7,393.6-279.7,392.7z M-269.2,406.9h-3.9v0h-3.9v-5.6h3.9v0h3.9V406.9z"/>
		<path fill="white" d="M-259.3,396.9c0,0,1-0.1,1.6-1c0.6-0.9,0.2-2,0.2-2s-1,0.2-1.6,1.1C-259.7,396-259.3,396.9-259.3,396.9z"/>
		<path fill="white" d="M-261,397.1c0,0,0.6-0.8,0.2-1.8c-0.4-1.1-1.3-1.5-1.3-1.5s-0.7,0.9-0.3,2C-262,396.8-261,397.1-261,397.1z"/>
		<path fill="white" d="M-261.9,400c0,0,0.7-0.7,0.5-1.8c-0.2-1.1-1.1-1.6-1.1-1.6s-0.8,0.8-0.6,1.9C-262.8,399.6-261.9,400-261.9,400z"/>
		<path fill="white" d="M-263.9,398.5c0,0-0.9,0.7-0.7,1.8c0.1,1.1,1,1.6,1,1.6s0.8-0.6,0.6-1.7C-263.1,399.1-263.9,398.5-263.9,398.5z"/>
		<path fill="white" d="M-266.4,402c-0.2,1.1,0.5,1.9,0.5,1.9s0.9-0.4,1.1-1.5c0.2-1.1-0.4-1.9-0.4-1.9S-266.2,400.9-266.4,402z"/>
		<path fill="white" d="M-260.1,394.6c0,0,0.8-0.6,0.8-1.7c0-1.1-1-1.7-1-1.7s-0.7,0.7-0.7,1.8C-260.9,394.1-260.1,394.6-260.1,394.6z"/>
		<path fill="white" d="M-257.2,396.9c0,0-1-0.1-1.9,0.6c-0.9,0.7-0.7,1.7-0.7,1.7s1,0.2,1.9-0.5C-257.1,398-257.2,396.9-257.2,396.9z"/>
		<path fill="white" d="M-260,399.9c-1,0.5-1.1,1.5-1.1,1.5s0.9,0.5,1.9,0s1.1-1.6,1.1-1.6S-259,399.4-260,399.9z"/>
		<path fill="white" d="M-261.2,402c-1.1,0.2-1.5,1.1-1.5,1.1s0.8,0.7,1.9,0.5c1.1-0.2,1.6-1.2,1.6-1.2S-260.1,401.8-261.2,402z"/>
		<path fill="white" d="M-265,404.6c0,0,0.7,0.8,1.8,0.8c1.1,0,1.7-1,1.7-1s-0.7-0.7-1.8-0.6C-264.5,403.8-265,404.6-265,404.6z"/>
		<path fill="white" d="M-259.8,395.1l-0.5,0.1c0,0.2,1.1,5.4-6.7,9.4l0.2,0.5C-258.6,400.9-259.8,395.2-259.8,395.1z"/>
	</g>
</g>
</svg>
