<?xml version="1.0" standalone="no"?>
<!DOCTYPE svg PUBLIC "-//W3C//DTD SVG 20010904//EN"
 "http://www.w3.org/TR/2001/REC-SVG-20010904/DTD/svg10.dtd">
<svg version="1.0" xmlns="http://www.w3.org/2000/svg"
 width="640.000000pt" height="640.000000pt" viewBox="0 0 640.000000 640.000000"
 preserveAspectRatio="xMidYMid meet">
<metadata>
Created by potrace 1.11, written by Peter Selinger 2001-2013
</metadata>
<g transform="translate(0.000000,640.000000) scale(0.100000,-0.100000)"
fill="#000000" stroke="none">
<path d="M0 3200 l0 -3200 3200 0 3200 0 0 3200 0 3200 -3200 0 -3200 0 0
-3200z m3393 1460 c469 -94 862 -399 1062 -823 96 -203 135 -365 142 -593 7
-214 -20 -378 -94 -579 -29 -77 -115 -248 -134 -265 -3 -3 -16 -23 -29 -45
-29 -48 -128 -165 -184 -219 -210 -200 -424 -318 -706 -387 -108 -27 -148 -32
-295 -36 -93 -2 -190 -1 -215 4 -71 13 -76 -22 83 513 l72 245 50 8 c204 33
351 107 478 241 219 231 263 553 114 818 -97 171 -226 277 -413 340 -60 20
-89 23 -214 23 -161 0 -209 -11 -337 -72 -217 -104 -373 -337 -373 -560 0 -65
-3 -74 -23 -88 -13 -8 -102 -38 -198 -66 -96 -28 -217 -64 -269 -79 -52 -16
-126 -38 -165 -49 -80 -24 -102 -21 -112 17 -12 46 -8 343 6 422 118 673 636
1168 1306 1249 114 14 328 5 448 -19z m-146 -1188 c66 -34 110 -78 140 -140
40 -81 40 -183 0 -264 -30 -62 -83 -115 -149 -150 -67 -34 -184 -32 -260 5
-225 111 -229 434 -5 548 80 41 196 41 274 1z m-482 -641 c2 -9 -4 -48 -16
-86 -11 -39 -24 -83 -29 -100 -8 -28 -74 -252 -142 -480 -16 -55 -39 -131 -50
-170 -22 -76 -40 -100 -68 -85 -10 5 -68 96 -129 202 l-112 193 -122 71 c-67
39 -155 90 -195 113 -116 68 -111 90 28 131 52 15 174 51 270 80 384 115 536
157 547 153 7 -3 15 -12 18 -22z"/>
</g>
</svg>
