<?xml version="1.0" encoding="UTF-8" standalone="no"?>
<!DOCTYPE svg PUBLIC "-//W3C//DTD SVG 1.1//EN" "http://www.w3.org/Graphics/SVG/1.1/DTD/svg11.dtd">
<svg width="100%" height="100%" viewBox="0 0 143 92" version="1.1" xmlns="http://www.w3.org/2000/svg" xmlns:xlink="http://www.w3.org/1999/xlink" xml:space="preserve" style="fill-rule:evenodd;clip-rule:evenodd;stroke-linejoin:round;stroke-miterlimit:1.41421;">
    <g transform="matrix(0.657711,0,0,0.657711,-516.551,-151.023)">
        <path d="M998.894,293.036C999.406,293.036 999.859,292.987 999.859,292.397C999.859,291.904 999.367,291.845 998.953,291.845L998.13,291.845L998.13,293.036L998.894,293.036ZM998.13,295.352L997.447,295.352L997.447,291.272L999.025,291.272C1000.03,291.272 1000.54,291.618 1000.54,292.446C1000.54,293.184 1000.08,293.491 999.455,293.558L1000.62,295.352L999.847,295.352L998.773,293.608L998.13,293.608L998.13,295.352ZM998.872,290.198C997.246,290.198 995.982,291.45 995.982,293.245C995.982,294.919 997.087,296.288 998.872,296.288C1000.48,296.288 1001.75,295.046 1001.75,293.245C1001.75,291.45 1000.48,290.198 998.872,290.198M998.872,296.929C996.716,296.929 995.178,295.342 995.178,293.245C995.178,291.028 996.884,289.558 998.872,289.558C1000.84,289.558 1002.55,291.028 1002.55,293.245C1002.55,295.46 1000.84,296.929 998.872,296.929" style="fill:rgb(7,34,105);fill-rule:nonzero;"/>
    </g>
    <g transform="matrix(0.657711,0,0,0.657711,-516.551,-151.023)">
        <path d="M905.084,368.169C905.084,368.543 905.208,368.618 905.483,368.618C906.081,368.618 906.808,368.543 907.355,368.418C907.33,367.919 907.278,367.096 907.278,365.371L907.278,354.386L911.851,354.386C912.199,354.236 912.698,353.612 912.723,352.863L904.334,352.863C901.536,352.863 900.965,352.838 900.641,352.737C900.438,352.939 900.142,353.312 899.938,353.837C899.765,354.236 899.94,354.386 900.314,354.386L905.084,354.386L905.084,368.169ZM821.865,352.76C821.697,352.76 821.538,352.761 821.387,352.764C820.662,352.744 819.98,352.73 819.383,352.73C818.981,352.73 818.007,352.829 817.555,352.93C817.606,353.406 817.631,354.432 817.631,356.133L817.631,364.039C817.631,366.141 817.606,367.616 817.555,368.618C818.131,368.618 818.582,368.618 819.208,368.519C819.707,368.442 819.831,368.367 819.831,367.867L819.847,354.286L824.451,354.286C825.201,354.286 825.789,354.286 826.259,354.282L827.963,354.282L827.963,368.217C827.963,368.543 828.09,368.618 828.338,368.618C828.713,368.618 829.815,368.519 830.242,368.418C830.216,367.918 830.167,367.092 830.167,365.341L830.167,357.259C830.167,355.35 830.188,353.957 830.229,353.005C830.242,352.926 830.251,352.843 830.253,352.76L830.239,352.76L830.242,352.73C829.942,352.73 829.557,352.737 829.194,352.76L821.865,352.76ZM947.871,364.964C947.871,366.163 947.871,367.212 947.771,368.36C948.471,368.46 949.993,368.635 951.417,368.635C954.938,368.635 957.459,367.262 957.459,363.767C957.459,360.396 954.662,358.898 952.714,358.898C952.116,358.898 951.641,358.972 951.341,359.172C951.092,359.321 950.765,359.897 950.792,360.42C951.117,360.32 951.641,360.271 952.016,360.271C953.263,360.271 955.112,360.97 955.112,363.691C955.112,366.612 952.963,367.161 951.417,367.161C950.94,367.161 950.517,367.138 950.068,367.086L950.068,355.926C950.068,354.202 950.117,353.429 950.142,352.93C949.766,352.805 948.819,352.73 948.296,352.73C948.044,352.73 947.871,352.805 947.871,353.179L947.871,364.964ZM936.976,355.605L941.842,367.765C942.093,368.364 942.269,368.515 942.593,368.515C942.993,368.515 943.965,368.414 944.49,368.239L944.49,368.139C944.04,367.24 943.417,365.691 942.393,363.346C941.394,361.073 939.221,355.731 938.074,353.083C937.975,352.834 937.799,352.659 937.499,352.659C937.199,352.659 936.351,352.783 935.8,352.909L936.1,353.608C935.277,355.555 931.107,365.018 929.686,368.089L929.686,368.215C930.058,368.389 930.783,368.515 931.183,368.515C931.483,368.515 931.632,368.414 931.732,368.215L936.976,355.605ZM923.019,363.495C923.867,365.468 924.266,366.467 924.816,367.765C925.065,368.364 925.24,368.515 925.564,368.515C925.965,368.515 926.938,368.414 927.463,368.239L927.463,368.139C927.013,367.24 926.389,365.691 925.365,363.346C924.366,361.073 922.195,355.731 921.046,353.083C920.946,352.834 920.773,352.659 920.471,352.659C920.171,352.659 919.322,352.783 918.774,352.909L919.071,353.608C918.249,355.555 914.079,365.018 912.658,368.089L912.658,368.215C913.029,368.389 913.756,368.515 914.155,368.515C914.456,368.515 914.605,368.414 914.704,368.215C915.128,367.34 915.902,365.518 916.776,363.495L923.019,363.495ZM922.519,361.973C921.17,358.576 920.296,356.48 919.947,355.605C919.099,357.629 918.301,359.625 917.326,361.973L922.519,361.973ZM895.006,363.495C895.855,365.468 896.253,366.467 896.804,367.765C897.052,368.364 897.227,368.515 897.552,368.515C897.952,368.515 898.926,368.414 899.449,368.239L899.449,368.139C899.001,367.24 898.376,365.691 897.352,363.346C896.352,361.073 894.182,355.731 893.031,353.083C892.936,352.834 892.76,352.659 892.46,352.659C892.16,352.659 891.31,352.783 890.761,352.909L891.061,353.608C890.234,355.555 886.067,365.018 884.644,368.089L884.644,368.215C885.019,368.389 885.742,368.515 886.143,368.515C886.442,368.515 886.591,368.414 886.693,368.215C887.117,367.34 887.889,365.518 888.764,363.495L895.006,363.495ZM894.507,361.973C893.158,358.576 892.285,356.48 891.936,355.605C891.085,357.629 890.286,359.625 889.314,361.973L894.507,361.973ZM856.575,352.359C851.584,352.359 848.587,355.981 848.587,360.748C848.587,364.244 850.784,368.738 856.575,368.738C861.894,368.738 864.517,364.744 864.517,360.399C864.517,355.904 861.42,352.359 856.602,352.359L856.575,352.359ZM856.376,353.782C853.308,353.782 850.984,356.206 850.984,360.524C850.984,364.918 853.83,367.315 856.727,367.315C859.896,367.315 862.143,365.018 862.143,360.524C862.146,356.678 859.848,353.782 856.4,353.782L856.376,353.782ZM835.647,368.065C835.647,368.439 835.823,368.515 836.071,368.515C836.597,368.515 837.545,368.439 837.921,368.315C837.894,367.815 837.845,367.04 837.845,365.317L837.845,354.158C838.293,354.107 838.72,354.082 839.191,354.082C840.742,354.082 842.888,354.632 842.888,357.553C842.888,360.274 841.042,360.974 839.791,360.974C839.418,360.974 838.893,360.924 838.568,360.823C838.544,361.348 838.868,361.923 839.119,362.072C839.418,362.273 839.891,362.347 840.49,362.347C842.439,362.347 845.233,360.848 845.233,357.478C845.233,353.982 842.712,352.609 839.191,352.609C837.769,352.609 836.247,352.783 835.548,352.884C835.647,354.032 835.647,355.081 835.647,356.28L835.647,368.065ZM879.125,359.586L879.125,353.481C879.125,352.981 879.249,352.881 879.624,352.831C880.072,352.755 880.872,352.73 881.399,352.73C881.348,353.682 881.323,355.156 881.323,357.259L881.323,365.341C881.323,367.092 881.372,367.918 881.399,368.418C880.973,368.519 879.873,368.618 879.497,368.618C879.249,368.618 879.125,368.543 879.125,368.217L879.125,361.037C878.624,361.087 877.798,361.112 875.597,361.112L870.993,361.111L870.993,367.867C870.993,368.367 870.866,368.442 870.366,368.519C869.744,368.618 869.293,368.618 868.717,368.618C868.766,367.616 868.79,366.141 868.79,364.039L868.79,356.133C868.79,354.432 868.766,353.406 868.717,352.93C869.166,352.829 870.144,352.73 870.542,352.73C870.893,352.73 870.993,352.881 870.993,354.031L870.993,359.586L879.125,359.586Z" style="fill:rgb(7,34,105);"/>
    </g>
    <g transform="matrix(0.657711,0,0,0.657711,-516.551,-151.023)">
        <path d="M936.592,299.075L936.592,328.417L959.346,298.192L959.346,337.678L952.054,337.678L952.049,315.693L936.592,337.63L929.468,337.634L929.517,299.075L936.592,299.075Z" style="fill:rgb(106,171,229);fill-rule:nonzero;"/>
    </g>
    <g transform="matrix(0.657711,0,0,0.657711,-516.551,-151.023)">
        <path d="M939.139,285.832C931.005,280.29 927.579,270.744 930.662,265.661C933.104,261.629 940.287,260.618 947.213,263.141C946.617,262.678 946.001,262.224 945.362,261.794C934.345,254.276 922.021,253.772 917.847,260.659C913.667,267.548 919.21,279.225 930.233,286.747C939.649,293.176 948.436,294.126 955.158,292.324C948.198,291.44 944.237,289.313 939.139,285.832" style="fill:rgb(222,133,187);fill-rule:nonzero;"/>
    </g>
    <g transform="matrix(0.657711,0,0,0.657711,-516.551,-151.023)">
        <path d="M991.76,290.557C989.19,294.405 984.303,299.075 979.455,299.075L964.248,299.075L964.248,305.811L972.791,305.811L972.791,337.738L980.108,337.738L980.108,305.811C988.649,305.811 991.76,298.139 991.76,290.557" style="fill:rgb(7,34,105);"/>
    </g>
    <g transform="matrix(0.657711,0,0,0.657711,-516.551,-151.023)">
        <path d="M835.042,300.904C835.685,298.934 836.625,297.367 838.574,297.367C840.512,297.367 841.455,299.46 842.087,300.904L856.793,337.768L848.657,337.768C848.657,337.768 838.192,310.89 838.185,310.876L838.136,310.733C838.136,310.733 837.962,310.157 837.791,309.573C837.669,309.936 837.512,310.367 837.24,310.978L826.327,337.768L819.983,337.768L835.042,300.904" style="fill:rgb(7,34,105);fill-rule:nonzero;"/>
    </g>
    <g transform="matrix(0.657711,0,0,0.657711,-516.551,-151.023)">
        <path d="M863.896,313.827C864.99,306.152 870.284,302.681 875.148,302.681C876.16,302.681 884.971,303.019 885.77,313.827L863.896,313.827ZM875.299,297.247C863.92,297.247 855.97,305.97 855.97,318.452C855.97,332.846 865.714,339.285 875.375,339.285C884.285,339.285 890.185,334.966 892.45,326.807L892.534,326.491C892.802,325.777 892.45,324.973 891.798,324.707C891.147,324.437 890.399,324.801 890.132,325.515L889.977,325.758C888.766,327.651 885.08,333.399 877.019,333.399C872.924,333.399 869.353,331.688 866.963,328.581C864.262,324.968 863.934,320.936 863.776,318.656L893.125,318.656L893.131,318.315C893.145,317.943 893.156,317.475 893.156,316.93C893.156,313.397 892.621,306.52 887.414,301.687C884.192,298.781 880.004,297.247 875.299,297.247" style="fill:rgb(7,34,105);fill-rule:nonzero;"/>
    </g>
    <g transform="matrix(0.657711,0,0,0.657711,-516.551,-151.023)">
        <path d="M949.687,250.436C948.352,253.458 947.842,257.793 949.054,262.902C949.054,262.902 943.231,252.236 948.13,241.647C953.343,230.368 964.455,227.842 972.831,230.201C981.213,232.564 988.176,240.467 987.463,253.72C986.205,277.016 951.984,301.139 951.984,301.139C951.984,301.139 970.739,286.03 976.518,273.856C982.626,260.999 981.954,244.843 967.481,240.971C962.347,239.597 954.021,240.635 949.687,250.436" style="fill:rgb(106,171,229);fill-rule:nonzero;"/>
    </g>
    <g transform="matrix(0.657711,0,0,0.657711,-516.551,-151.023)">
        <path d="M904.771,320.421L911.024,320.421C916.076,320.421 918.299,323.672 918.299,326.687C918.299,329.808 915.783,332.873 910.422,332.873L904.771,332.873L904.771,320.421ZM898.404,297.518L898.404,338.764L910.303,338.764C919.563,338.764 924.664,333.777 924.664,327.039C924.664,321.989 921.545,318.74 917.642,317.533C921.306,315.621 923.045,312.061 923.045,308.46C923.045,304.129 920.292,297.518 908.38,297.518L898.404,297.518ZM904.771,303.409L909.517,303.409C914.391,303.409 916.796,305.997 916.796,309.181C916.796,312.242 914.337,315.019 910.184,315.019L904.771,315.019L904.771,303.409Z" style="fill:rgb(7,34,105);fill-rule:nonzero;"/>
    </g>
    <g transform="matrix(0.657711,0,0,0.657711,-516.551,-151.023)">
        <path d="M788.478,305.748C786.337,303.608 789.353,301.019 789.353,301.019C793.622,297.976 798.295,297.394 801.163,297.394C810.983,297.394 821.512,304.581 821.512,318.325C821.512,331.832 811.509,339.432 801.459,339.432C797.48,339.432 793.212,338.376 789.413,335.744C789.413,335.744 786.064,334.117 787.509,331.009C788.793,328.242 791.692,330.194 791.692,330.194C795.785,333.287 799.466,333.645 801.459,333.645C809.112,333.645 814.379,327.62 815.022,320.722L797.539,320.722L797.539,315.169L815.022,315.169C814.082,307.153 807.537,303.122 801.047,303.122C797.306,303.122 794.319,304.41 791.925,306.337C791.925,306.337 790.497,307.766 788.478,305.748" style="fill:rgb(7,34,105);fill-rule:nonzero;"/>
    </g>
</svg>
