<?xml version="1.0" encoding="utf-8"?>
<!DOCTYPE svg PUBLIC "-//W3C//DTD SVG 1.1//EN" "http://www.w3.org/Graphics/SVG/1.1/DTD/svg11.dtd">
<svg version="1.1" id="Calque_1" xmlns="http://www.w3.org/2000/svg" xmlns:xlink="http://www.w3.org/1999/xlink" x="0px" y="0px" width="234px" height="47px"
	 viewBox="0 0 243 47" enable-background="new 0 0 243 47" xml:space="preserve">
<g>
	<g>
		<path fill="#FCF8F1" d="M23.5,1C11.1,1,1,11,1,23.4c0,12.4,10.1,22.4,22.5,22.4c12.4,0,22.5-10,22.5-22.4C45.9,11,35.9,1,23.5,1z
			 M23.5,42.5c-10.6,0-19.1-8.5-19.1-19.1c0-10.5,8.6-19.1,19.1-19.1c10.6,0,19.1,8.5,19.1,19.1C42.6,33.9,34,42.5,23.5,42.5z
			 M32.9,10.4C32.9,10.4,32.9,10.4,32.9,10.4C32.9,10.4,32.9,10.4,32.9,10.4C32.9,10.4,32.9,10.4,32.9,10.4z M23.5,7.3
			c-6.6,0-12.3,4-14.8,9.6c4.4,0.6,8.3,3,10.7,6.5c1-7.1,6.9-11.4,13.5-13.1c-0.1,0-0.1-0.1-0.2-0.1C30.1,8.4,26.9,7.3,23.5,7.3z
			 M22.5,26.8c4.9-2.4,8.1-6.8,7.7-12.3c-5.2,2-8.1,6.9-8.1,12.1l0,12.8c0.4,0,0.9,0.1,1.3,0.1c4.7,0,8.9-2,11.9-5.2
			C29.8,34,25.3,31.4,22.5,26.8z M32.9,10.4c1.1,6.6-0.4,13.5-6,17.2c2.1,2.3,6.3,4,10.6,3.6c1.3-2.3,2-5,2-7.8
			C39.5,18.1,36.9,13.3,32.9,10.4z M7.8,19.9L7.8,19.9c-0.3,1.1-0.4,2.3-0.4,3.5c0,7.3,4.9,13.5,11.7,15.4l0-6.6
			C19,25.6,14.1,20.5,7.8,19.9z M233.5,24.8c1.9-0.7,3.2-2.5,3.2-4.6c0-2.7-2.2-4.9-4.9-4.9h-8.9v16.3h3.3v-6.5h3.9l3.2,6.5h3.3
			l0.5,0L233.5,24.8z M231.1,22.5h-5v-4.4h5c1.2,0,2.2,1,2.2,2.2C233.3,21.5,232.3,22.5,231.1,22.5z M184.8,26.1h-3.7
			c-1,1.7-2.7,2.8-4.7,2.8c-3,0-5.4-2.5-5.4-5.5c0-3,2.4-5.5,5.4-5.5c1.9,0,3.6,1.1,4.7,2.8h3.7l-0.1-0.4c-1.2-3.2-4.4-5.5-8.2-5.5
			c-4.9,0-8.7,3.8-8.7,8.6c0,4.8,3.8,8.5,8.7,8.5c3.8,0,6.9-2.2,8.2-5.5L184.8,26.1z M63.1,22.3l-4-7.1h-3.9l6.2,10v6.3h3.3v-6.3
			l6.1-10.1h-3.8L63.1,22.3z M79.4,27.3l-4.1-12.1h-3.6l5.8,16.3h3.6l5.9-16.3h-3.6L79.4,27.3z M118.9,26.7c0-1.5-0.7-2.7-1.9-3.6
			c-0.9-0.6-1.9-0.9-4-1.4c-3.6-0.8-3.8-1.1-3.8-2.1c0-1.2,0.9-1.9,2.8-1.9c1.8,0,2.7,0.6,3.1,2.1h3.3c-0.3-3.1-2.6-4.8-6.2-4.8
			c-3.7,0-6.1,1.9-6.1,4.9c0,1.4,0.6,2.6,1.7,3.3c0.7,0.5,2.3,1,4.5,1.6l0.3,0.1l0.6,0.1c0.5,0.1,1,0.3,1.4,0.5
			c0.9,0.4,1.2,0.9,1.2,1.6c0,1.3-1.1,2.2-3.1,2.2c-2.3,0-3.5-0.9-3.8-2.7h-3.3c0.3,3.4,2.8,5.4,6.9,5.4
			C116.3,31.9,118.9,30,118.9,26.7z M198.2,22.1h-6.7v-6.9h-3.3v16.3h3.3v-6.5h6.7v6.5h3.3V15.2h-3.3V22.1z M206.7,31.6h11.9v-2.9
			H210v-3.6h6.1v-2.8H210v-4.1h8.6v-2.9h-11.9V31.6z M156.1,14.9c-4.9,0-8.8,3.8-8.8,8.6c0,4.8,3.8,8.5,8.8,8.5
			c4.9,0,8.7-3.7,8.7-8.6C164.8,18.6,161,14.9,156.1,14.9z M156.1,28.9c-3,0-5.4-2.5-5.4-5.5c0-3,2.4-5.5,5.4-5.5
			c3,0,5.3,2.5,5.3,5.5C161.4,26.4,159,28.9,156.1,28.9z M144.5,20.2c0-2.7-2.2-4.9-4.9-4.9h-8.9v16.3h3.3v-6.5h3.9l3.2,6.5h3.3
			l0.5,0l-3.5-6.8C143.2,24.1,144.5,22.3,144.5,20.2z M139,22.5h-5v-4.4h5c1.2,0,2.2,1,2.2,2.2C141.2,21.5,140.2,22.5,139,22.5z
			 M102.3,28.6h-8.6v-3.6h6.1v-2.8h-6.1v-4.1h8.6v-2.9h-12v16.3h12V28.6z M133.5,37.2l-3.2,8.6h1.9l0.7-1.9h3.2l0.7,1.9h1.9
			l-3.2-8.6H133.5z M133.4,42.5l1.1-3l1.1,3H133.4z M153.1,42.6l-3.5-5.3h-1.8v8.6h1.8v-5.3l3.5,5.3h1.8v-8.6h-1.8L153.1,42.6z
			 M98.5,45.8h1.8v-3.4h3.4v-1.5h-3.4v-2.2h4.3v-1.5h-6L98.5,45.8L98.5,45.8z M120.8,39.8c0-1.4-1.2-2.6-2.6-2.6h-4.4v8.6h1.8v-3.4
			h1.8l1.7,3.4h1.7l0.2,0l-1.9-3.6C120.1,41.9,120.8,40.9,120.8,39.8z M117.9,41h-2.3v-2.3h2.4c0.6,0,1.1,0.5,1.1,1.1
			C119,40.5,118.5,41,117.9,41z M169.5,38.6c1,0,1.9,0.6,2.4,1.5h1.9l-0.1-0.2c-0.6-1.7-2.3-2.9-4.3-2.9c-2.6,0-4.6,2-4.6,4.5
			c0,2.5,2,4.5,4.6,4.5c2,0,3.6-1.2,4.3-2.9l0.1-0.2h-1.9c-0.5,0.9-1.4,1.5-2.4,1.5c-1.6,0-2.8-1.3-2.8-2.9
			C166.6,39.9,167.9,38.6,169.5,38.6z M183.1,45.8h6v-1.5h-4.3v-1.9h3.2v-1.5h-3.2v-2.2h4.3v-1.5h-6V45.8z"/>
	</g>
</g>
</svg>
