<svg xmlns="http://www.w3.org/2000/svg" width="340" height="46" viewBox="0 0 340 46"><path fill="#ec008c" d="M113.1 28.3c0 .9-.1 1.3-.3 2-1 3.6-4.3 7-7.6 7.8-2.6.5-4.6.2-5.9-.7-1.4-.9-2.3-2.5-2.6-4.1-.1-.6-.2-1.1-.2-1.6 0-3.3 1.9-6.5 5.1-8.9 1.9-1.3 4.4-1.8 6.6-1.3 1.3.3 2.8 1.1 3.9 3 .7 1.1 1.1 2.5 1 3.8m-28.9-2.2H70.5c1.4-2.6 4.3-4.2 6.8-4.6 2.7-.2 4 .5 5.2 1.5 1.1 1.1 1.6 2.2 1.7 3.1m32 17.5l6.7-36.3c0-.3 0-.5-.2-.7s-.4-.3-.7-.3h-4.6c-.4 0-.8.3-.9.7 0 0-1.6 7.7-2.1 10.2-1-.9-2.2-1.4-3.3-1.9l-.5-.2c-.1 0-.1 0-.2-.1-5-1.1-10 .4-14.1 4.2-2.4 2.2-4.2 4.9-5.2 7.8-.1-2.4-.8-4.7-1.6-6.5v-.1c-2.4-4-6.4-5.9-11.6-5.7h-.1c-5.8.7-11.5 4.5-14.3 10 0 .1-.1.2-.1.3l4.4-23.9c0-.2 0-.4-.1-.6s-.3-.3-.5-.3h-6c-.2 0-.4.1-.5.2 0 0-18.6 24.2-21.5 27.4C40 23.9 44 1.1 44 1.1V1c0-.2-.1-.3-.1-.4-.1-.2-.3-.2-.5-.2h-5.8c-.2 0-.4.1-.5.2L.2 43c-.1.2-.2.3-.2.5 0 .1 0 .2.1.3.1.2.3.4.6.4h7.4c.2 0 .4-.1.5-.3 0 0 23.4-26.5 26.1-29.8-1.1 5.4-3.2 19.4-5.4 29.2v.1c0 .2.1.3.1.4.1.2.3.3.5.3h5.7c.2 0 .4-.1.5-.3 0 0 19.4-26.5 22.3-29.8-1.2 5.5-3 19.5-5.4 29.2v.2c0 .1 0 .3.1.4.1.2.3.3.5.3h5.5c.3 0 .6-.2.6-.5L62 32.4c0 2.4.5 4.8 1.5 6.7 2 3.6 5.7 5.7 10.1 5.9 6.3 0 12.3-3.8 15-9.4.1-.3.1-.6-.1-.9-.2-.3-.4-.4-.8-.4H83c-.3 0-.5.1-.7.3-2.2 2.5-4.8 3.8-7.5 3.9-2.7.1-5.1-1.5-6.2-3.9 0-.1-.1-.3-.1-.3-.1-.5-.3-.9-.3-1.2v-.3h21.2c.2 0 .4-.1.6-.2 0 1.1.1 2.2.3 3.4.8 4.2 4.5 8.2 8.5 9 3.5.6 7.3-.3 11-2.6-.1.4-.2 1-.2 1v.2c0 .2.1.4.2.6.2.2.4.2.7.2h4.6c.7-.2 1.1-.4 1.1-.8m14-30.3l1.1-5.9c0-.3 0-.5-.2-.7s-.4-.3-.7-.3h-5.1c-.4 0-.8.3-.9.8l-1.1 5.9c-.1.3 0 .7.2.9s.4.3.7.3h5.1c.4-.2.8-.6.9-1m148.4 15c0 .7-.1 1.4-.3 2.1-1.1 3.6-4.4 7-7.8 7.9-2.6.4-4.4.1-5.7-.7-1.4-.9-2.2-2.5-2.6-4.1-.1-.5-.1-1.1-.1-1.6 0-3.3 1.8-6.5 5-8.9 1.9-1.3 4.4-1.8 6.6-1.3 1.3.3 3 1 4 3 .6.9.9 2.3.9 3.6m-129 0c0 .7-.1 1.4-.3 2.1-1 3.6-4.2 6.9-7.5 7.8-2.5.5-4.7.2-6-.7-1.4-.9-2.1-2.5-2.6-4.1-.2-.7-.2-1.1-.2-1.6 0-3.3 1.8-6.5 5-8.9 1.9-1.3 4.4-1.8 6.6-1.3 1.3.3 3 1 4 3 .7 1 1 2.4 1 3.7m136.2-6.6l1-5.9c0-.2-.1-.4-.2-.6-.2-.2-.4-.3-.7-.3h-4.6c-.4 0-.8.3-.9.7l-.4 1.7c-1-.9-2-1.5-3.5-2.1l-.5-.2c-.1 0-.1 0-.2-.1-5-1.1-10 .4-14.1 4.2-2.1 1.9-3.6 4.1-4.6 6.4L261.7 1c0-.2 0-.4-.1-.6s-.3-.3-.5-.3H255c-.2 0-.4.1-.5.2 0 0-18.4 24.2-21.3 27.5 1.1-4 4.9-26.9 4.9-26.9V.8c0-.2-.1-.4-.1-.5-.1-.2-.3-.2-.5-.2h-6.4c-.2 0-.4.1-.5.3l-30.9 35.7c-.5-5.2-3-10.9-3-10.9-4-8.3-13-11.1-18.2-6.7-.3.1-.6.2-.8.4 4-5.5 13.2-5.1 19.3 1.8 0 0 2.8 3.3 4.7 8.2.5-1.7.8-3.5.9-5.4-3.2-4.4-6.9-6.9-6.9-6.9-7.5-5.1-16.5-3.2-19 3.1-.3.3-.5.7-.6 1 .7-6.8 8.9-11 17.6-8 0 0 4.2 1.5 8.4 5-.1-.3-.1-.5-.2-.8-.5-1.8-1.1-3.5-2-5.1-4.9-2.1-9.3-2.5-9.3-2.5-9.3-.7-16.3 5.8-14.8 12.7v1c-3.1-6.3 1.9-14.3 11.1-16.1 0 0 4.3-.7 9.6 0-1.3-1.4-2.9-2.7-4.6-3.7-5.3.6-9.2 2.5-9.2 2.5-8.4 4.1-11.2 13.2-6.5 18.5.2.3.3.6.6.9-5.9-3.9-5.6-13.4 1.5-19.5 0 0 3.3-2.8 8.3-4.7-2-.6-4.2-.9-6.3-.9-4.1 3.1-6.6 6.6-6.6 6.6-5.3 7.8-3 17.2 3.8 19.3h.1c.2.1.4.3.6.4-7-.4-11.5-8.8-8.4-17.6 0 0 1.4-3.8 4.5-7.9-1.8.5-3.5 1.1-5.1 2-2 4.8-2.4 9-2.4 9-.6 9.3 5.7 16.2 12.6 14.9h.4c.2 0 .5 0 .7-.1-6.3 3.1-14.3-1.9-16.1-11.1 0 0-.7-4.1 0-9.3-1.5 1.4-2.8 3.1-3.9 4.9.7 5.1 2.4 8.8 2.4 8.8 4.1 8.5 13.3 11.2 18.6 6.4l.1-.1c.2-.1.4-.3.7-.4-3.8 6-13.4 5.7-19.5-1.4 0 0-3-4-4.7-8.6l-.3-.6c-.2-.2-.5-.3-.7-.3h-4.6c-.4 0-.8.2-1 .7 0 0-.2.5-.4 1.6-1-.9-2.2-1.4-3.3-1.9 0 0-.6-.2-.7-.2-5-1.2-10 .4-14.1 4.2-2.4 2.2-4.1 4.9-5.1 7.8 0 0 0 .1-.1.2l2.1-11.3c0-.3 0-.5-.2-.7s-.4-.3-.7-.3h-5.1c-.4 0-.8.3-.9.7l-5.1 27.6c0 .3 0 .5.2.7s.4.2.7.2h5.1c.4 0 .8-.2.9-.6l2-11.2c0 .1.1 2.4.3 3.5.8 4.2 4.5 8.2 8.5 9 3.5.6 7.3-.3 11-2.6-.1.4-.2 1-.2 1v.2c0 .2 0 .3.2.5s.5.3.7.3h4.6c.4 0 .8-.2.9-.6l4-21.7c3 3.6 6.9 6.6 6.9 6.6 7.6 5.1 16.6 3.2 19.1-3.2l.6-.9c-.7 6.8-8.9 11-17.6 8 0 0-3.8-1.4-7.9-4.5 0 .2.1.3.1.5.5 1.9 1.2 3.6 2.1 5.3 4.7 1.9 8.8 2.3 8.8 2.3 9.3.7 16.2-5.8 14.9-12.6 0-.2.1-.4.1-.7v-.3c2.9 6.2-2.1 14.1-11.2 15.9 0 0-4 .7-9.1 0 1.2 1.3 2.6 2.4 4.1 3.4 5.3-.6 9.2-2.4 9.2-2.4 8.2-4 11.1-12.8 6.7-18.1-.2-.4-.4-.7-.6-1 5.7 3.9 5.3 13.3-1.7 19.3 0 0-3.4 2.8-8.4 4.8 2 .7 4 1.1 6.1 1.1 4.3-3.2 6.9-6.8 6.9-6.8 5.3-7.8 3.1-17.1-3.7-19.3-.3-.2-.5-.3-.9-.4 7.1.4 11.5 8.8 8.5 17.6 0 0-1.5 4.2-4.9 8.4.3-.1.5-.1.8-.2 1.7-.4 3.3-1.1 4.9-1.9 2.1-4.9 2.5-9.2 2.5-9.2.6-9.1-5.6-16-12.3-14.9-.3-.1-.6-.1-.8-.1h-.2C186 16 193.7 21 195.5 30c0 0 1 4.3.3 9.3-.2.7-.5 1.8-1 2.9-.2.3-.4.7-.7 1.1-.1.2-.1.5 0 .7s.3.4.6.4h7.3c.2 0 .4-.1.5-.2 0 0 23.9-25.7 26.7-29-1 5.4-3.2 18.6-5.1 28.4v.1c0 .2.1.3.1.4.1.2.3.2.5.2h5.7c.2 0 .4-.1.5-.2 0 0 19.2-25.6 22.1-29-1.2 5.5-3.2 18.7-5.2 28.4v.2c0 .1 0 .3.1.4.1.2.3.3.5.3h5.6c.3 0 .6-.2.6-.5l2.1-12v.7c0 1.1-.4 2.2-.2 3.4.8 4.2 4.5 8.2 8.5 9 3.5.6 7.3-.3 11-2.6-.1.4-.2 1-.2 1v.2c0 .2.1.4.2.6.2.2.4.2.7.2h4.6c.4 0 .8-.2.9-.6l3.6-22.1zm37.2-.5c-.3 1.6-3 16-3.8 20.6-2-3.3-7.8-12.8-8.4-13.7.7-.8 7.9-9.6 9.4-11.4l-.6 3.4c0 .3 0 .5.2.7s.4.3.7.3h2.5v.1zm9.5-13.9v-.2c0-.2-.1-.4-.2-.6-.2-.2-.4-.3-.7-.3h-5.1c-.4 0-.8.3-.9.7 0 0-1.3 6.7-1.5 7.9h-2.8c-.3 0-.6.1-.8.4-.2-.2-.4-.4-.7-.4h-5.9c-.2 0-.5.1-.6.3 0 0-4.1 5.2-6.6 7.9.7-4.2 2.9-15.8 2.9-15.8v-.1c0-.2-.1-.4-.2-.6-.2-.2-.4-.3-.7-.3h-5c-.4 0-.8.3-.9.7-.1.7-.8 3.9-1.5 8-.2-.2-.4-.4-.7-.4-2.1.1-4.4.9-6.1 2l.1-.6c0-.3 0-.5-.2-.7s-.4-.3-.7-.3h-4.6c-.4 0-.8.2-.9.7l-.1.7-4.9 26.9c0 .3 0 .5.2.7s.4.3.7.3h4.4c.4 0 .8-.3.9-.7l3.4-16.7c1.1-4.2 3.9-5.5 6.4-5.8.1 0 .6 0 .7-.1-1.7 10.1-3.7 22.1-3.7 22.3 0 .3 0 .5.2.7s.4.3.7.3h5c.4 0 .7-.2.8-.6.1-.5 1.4-7.4 2.2-11.5 1.8 2.8 7.2 11.7 7.2 11.7.2.2.4.4.7.4h5.5c.1 0 .2-.1.3-.2.1.1.3.2.4.2h5.8c.4 0 .8-.3.9-.7 0 0 3.9-20.9 4.1-22.3h5.5c.4 0 .8-.3.9-.7l.8-4.5v-.1c0-.2-.1-.4-.2-.6-.2-.2-.4-.3-.7-.3h-5.2c.2-1.7 1.4-7.7 1.4-7.7m5.1 1.2c0 .4-.4.5-.6.5h-.7v-.9h.8c.4 0 .5.2.5.4m.8 2.4l-.6-1.5c.2-.1.6-.3.6-.9 0-1-1.1-1-1.3-1h-1.6v3.4h.7V9.6h.8l.5 1.3h.9zm1-1.7c0 1.4-1.1 2.6-2.6 2.6-1.4 0-2.6-1.2-2.6-2.6 0-1.5 1.2-2.6 2.6-2.6 1.5.1 2.6 1.2 2.6 2.6m.6 0c0-1.8-1.4-3.1-3.1-3.1s-3.1 1.4-3.1 3.1 1.4 3.1 3.1 3.1c1.7.1 3.1-1.3 3.1-3.1"/></svg>