<?xml version="1.0" encoding="utf-8"?>
<!-- Generator: Adobe Illustrator 21.1.0, SVG Export Plug-In . SVG Version: 6.00 Build 0)  -->
<svg version="1.1" id="Layer_1" xmlns="http://www.w3.org/2000/svg" xmlns:xlink="http://www.w3.org/1999/xlink" x="0px" y="0px"
	 viewBox="0 0 240 100" style="enable-background:new 0 0 240 100;" xml:space="preserve">
<style type="text/css">
	.st0{fill:#231F20;}
	.st1{fill:#DBAA27;}
	.st2{fill:#FFFFFF;}
</style>
<g>
	<polygon class="st2" points="203.4,78.2 203.6,78.2 210.3,47.5 214.9,47.5 206.8,83 200.2,83 192.1,47.5 196.6,47.5 	"/>
	<path class="st2" d="M4.8,83.4H0.2v-35c1.3-0.4,2.6-0.6,3.9-0.8c1.3-0.2,2.7-0.2,4.2-0.2c2,0,3.8,0.2,5.2,0.6
		c1.4,0.4,2.6,1.1,3.5,2.1c0.9,1,1.5,2.3,1.9,3.9c0.4,1.6,0.6,3.6,0.6,6c0,2.5-0.2,4.5-0.6,6.2c-0.4,1.7-1,3-1.8,4
		c-0.8,1-1.8,1.7-3,2.1C13,72.8,11.5,73,9.9,73c-0.8,0-1.7-0.1-2.6-0.2c-1-0.1-1.8-0.2-2.4-0.4V83.4z M8.3,69.5c1.2,0,2.1-0.1,3-0.4
		c0.8-0.3,1.5-0.8,2.1-1.5c0.5-0.7,0.9-1.7,1.2-2.9c0.3-1.2,0.4-2.7,0.4-4.6c0-1.8-0.1-3.3-0.4-4.6c-0.3-1.2-0.7-2.2-1.2-2.9
		c-0.5-0.7-1.2-1.2-2.1-1.5c-0.8-0.3-1.8-0.4-3-0.4H4.8v18.8H8.3z"/>
	<path class="st2" d="M27.6,74.3l-2.3,9.1h-4.6l8.6-35.5h6.6l8.6,35.5H40l-2.3-9.1H27.6z M32.7,53h-0.2l-4.2,17.8H37L32.7,53z"/>
	<path class="st2" d="M58.2,84c-1.8,0-3.4-0.3-4.7-0.9c-1.4-0.6-2.5-1.6-3.5-2.9c-1-1.4-1.7-3.3-2.2-5.6c-0.5-2.4-0.7-5.3-0.7-8.9
		c0-3.6,0.2-6.5,0.7-8.9c0.5-2.4,1.2-4.2,2.1-5.6c0.9-1.4,2-2.4,3.4-2.9c1.3-0.6,2.8-0.9,4.5-0.9c1.5,0,3,0.1,4.4,0.3
		c1.4,0.2,2.5,0.4,3.2,0.7v2.3h-6.6c-1,0-2,0.2-2.8,0.7c-0.9,0.4-1.6,1.2-2.3,2.4c-0.6,1.1-1.1,2.7-1.5,4.6
		c-0.4,1.9-0.5,4.4-0.5,7.4c0,3,0.2,5.4,0.6,7.4c0.4,1.9,0.9,3.5,1.5,4.6c0.7,1.1,1.5,1.9,2.4,2.4c0.9,0.4,2,0.7,3.1,0.7h6.6v2.3
		c-0.8,0.3-1.9,0.5-3.2,0.7C61.2,83.9,59.7,84,58.2,84"/>
	<path class="st2" d="M79.2,84c-1.8,0-3.4-0.3-4.7-0.9c-1.4-0.6-2.5-1.6-3.5-2.9c-1-1.4-1.7-3.3-2.2-5.6c-0.5-2.4-0.7-5.3-0.7-8.9
		c0-3.6,0.2-6.5,0.7-8.9c0.5-2.4,1.2-4.2,2.1-5.6c0.9-1.4,2-2.4,3.4-2.9c1.3-0.6,2.8-0.9,4.5-0.9c1.5,0,3,0.1,4.4,0.3
		c1.4,0.2,2.5,0.4,3.2,0.7v2.3h-6.6c-1,0-2,0.2-2.8,0.7c-0.9,0.4-1.6,1.2-2.3,2.4c-0.6,1.1-1.1,2.7-1.5,4.6
		c-0.4,1.9-0.5,4.4-0.5,7.4c0,3,0.2,5.4,0.6,7.4c0.4,1.9,0.9,3.5,1.5,4.6c0.7,1.1,1.5,1.9,2.4,2.4c0.9,0.4,2,0.7,3.1,0.7h6.6v2.3
		c-0.8,0.3-1.9,0.5-3.2,0.7C82.2,83.9,80.7,84,79.2,84"/>
	<path class="st2" d="M101.9,65c0.6,0.2,1.2,0.4,1.8,0.7c0.5,0.3,1,0.6,1.4,1.1c0.4,0.5,0.8,1.1,1.1,1.8c0.3,0.7,0.6,1.6,0.8,2.7
		l1.3,6.6c0.2,0.9,0.6,1.7,1.2,2.3c0.6,0.7,1.6,1,2.9,1v2.3c-0.2,0.1-0.5,0.2-0.9,0.3c-0.6,0.2-1.3,0.3-2.2,0.3
		c-1.5,0-2.8-0.5-3.8-1.5c-1-1-1.7-2.5-2.1-4.6l-1.3-6.6c-0.3-1.8-0.9-3-1.8-3.6c-0.9-0.6-1.9-0.9-3-0.9h-1.8v16.8H91V47.9h4.6v15.2
		h1.8c0.9,0,1.7-0.3,2.5-1c0.8-0.6,1.4-1.8,1.8-3.6l1.3-5.1c1-4.1,3-6.1,5.8-6.1c0.4,0,0.8,0,1.2,0.1c0.4,0.1,0.7,0.1,1,0.2
		c0.3,0.1,0.6,0.2,0.9,0.3v2.3c-1.3,0-2.2,0.3-2.8,0.9c-0.6,0.6-1,1.4-1.3,2.4l-1.3,5.1c-0.3,1.1-0.5,1.9-0.8,2.7
		c-0.3,0.7-0.6,1.3-1,1.8c-0.4,0.5-0.8,0.8-1.2,1.1c-0.4,0.3-0.9,0.5-1.5,0.7V65z"/>
	<path class="st2" d="M121.9,74.3l-2.3,9.1H115l8.6-35.5h6.6l8.6,35.5h-4.6l-2.3-9.1H121.9z M127.1,53h-0.2l-4.2,17.8h8.6L127.1,53z
		"/>
	<path class="st2" d="M149,80.7c2.5,0,4.4-0.5,5.5-1.6c1.1-1.1,1.6-2.8,1.6-5.3c0-2.5-0.6-4.4-1.6-5.5c-1.1-1.1-2.9-1.6-5.5-1.6
		h-3.6v-3.6h3c2.3,0,4-0.5,5-1.5c1-1,1.6-2.6,1.6-4.8c0-2-0.5-3.6-1.6-4.6c-1-1-2.7-1.5-5-1.5h-6.1v-2.3c0.4-0.1,0.8-0.3,1.4-0.4
		c0.5-0.1,1.1-0.2,1.7-0.3c0.6-0.1,1.2-0.2,1.8-0.2c0.6-0.1,1.2-0.1,1.7-0.1c3.8,0,6.6,0.8,8.2,2.3c1.6,1.5,2.5,3.9,2.5,7.1
		c0,2-0.4,3.7-1.1,4.9c-0.8,1.2-1.9,2.2-3.4,2.9v0.2c2,0.6,3.5,1.7,4.3,3.3c0.8,1.6,1.3,3.5,1.3,5.7c0,1.8-0.2,3.3-0.6,4.6
		c-0.4,1.3-1.1,2.3-2,3.1c-0.9,0.8-2.1,1.4-3.6,1.8c-1.5,0.4-3.3,0.6-5.5,0.6c-1.3,0-2.6-0.1-3.9-0.3c-1.3-0.2-2.4-0.4-3.2-0.7v-2.3
		H149z"/>
	<path class="st2" d="M175.7,47.4c1.7,0,3.3,0.3,4.6,0.9c1.3,0.6,2.5,1.6,3.4,2.9c0.9,1.4,1.7,3.3,2.2,5.6c0.5,2.4,0.7,5.3,0.7,8.9
		c0,3.6-0.2,6.5-0.7,8.9c-0.5,2.4-1.2,4.2-2.2,5.6c-0.9,1.4-2.1,2.4-3.4,2.9c-1.3,0.6-2.9,0.9-4.6,0.9c-1.7,0-3.3-0.3-4.6-0.9
		c-1.3-0.6-2.5-1.6-3.4-2.9c-0.9-1.4-1.7-3.3-2.2-5.6c-0.5-2.4-0.7-5.3-0.7-8.9c0-3.6,0.2-6.5,0.7-8.9c0.5-2.4,1.2-4.2,2.2-5.6
		c0.9-1.4,2.1-2.4,3.4-2.9C172.4,47.7,174,47.4,175.7,47.4 M175.7,80.9c0.8,0,1.6-0.2,2.4-0.7c0.8-0.4,1.5-1.2,2-2.4
		c0.6-1.2,1-2.7,1.4-4.7c0.4-2,0.5-4.5,0.5-7.5c0-3-0.2-5.5-0.5-7.5c-0.4-2-0.8-3.5-1.4-4.7c-0.6-1.1-1.3-1.9-2-2.4
		c-0.8-0.4-1.6-0.7-2.4-0.7c-0.8,0-1.6,0.2-2.4,0.7c-0.8,0.4-1.5,1.2-2,2.4c-0.6,1.2-1,2.7-1.4,4.7c-0.4,2-0.5,4.5-0.5,7.5
		c0,3,0.2,5.6,0.5,7.5c0.4,2,0.8,3.5,1.4,4.7c0.6,1.2,1.3,1.9,2,2.4C174.1,80.7,174.9,80.9,175.7,80.9"/>
	<path class="st1" d="M211.5,45c0,0,0.7-1,1.3-3.2c0.6-2.2-0.5-5.8-1.8-7.3c-1.3-1.4-2.6-2.2-4.1-2.9c-1.5-0.7-2.9-0.9-2.9-0.9
		s-2.3,5.1,0,10.6c1.2,3,3.9,3.7,5.3,3.8C210.7,45.1,211.5,45,211.5,45"/>
	<path class="st1" d="M216.7,41.9c1.1-0.4,3.3-0.2,5.1-1.8c6.3-5.5,0.6-12.5,0.6-12.5s-2.8,2.4-5.6,4c-4.3,2.5-1.9,8.2-1.9,8.8
		C215.2,42,215.5,42.3,216.7,41.9"/>
	<path class="st1" d="M225.7,44.2c-1.6-0.9-3.8-0.9-5.3-0.7c-2.2,0.4-5.2,2.6-5.2,2.6s1.8,2.6,4,3.6c5,2.2,11-0.4,11-0.4
		S228.2,45.7,225.7,44.2"/>
	<path class="st1" d="M213.7,15.4c2.8-5.6,0.9-11.2,0.9-11.2s-4.4,0.6-8.4,5.9c-2.2,2.9-2.2,8-2.7,11.2
		C208.6,21.7,211.8,19.2,213.7,15.4"/>
	<path class="st1" d="M189.7,30.5c0.7-3.8-1.3-7.9-4-12.9c-12.8,11.1-1.3,22.5-1.3,22.5S188.4,37.2,189.7,30.5"/>
	<path class="st1" d="M156.7,43.2c11.3,8.9,19.5-2.7,19.5-2.7C170.9,34.9,160.7,36.8,156.7,43.2"/>
	<path class="st2" d="M200.5,63.5c-0.1-0.1-0.2-0.3-0.3-0.4c0,0.1,0,0.2,0,0.3L200.5,63.5z"/>
	<path class="st1" d="M200.2,63.1c0.6-4.1-0.4-6.2-1.7-8.2c-1.5-2.2-3.3-4.4-3.1-6.9c0.3-4.3,1.2-5.9,2.7-9.3c0.9-2.1,2-3.8,3.1-6.8
		c2.1-5.5,1.1-9.9,0.2-11.9c0.3-3.2,2-7.8-0.6-12.3c-1.9-3.3-6.5-5.5-9.8-7.3c-1.5,4.1-2.2,10.8,0.5,14.8c1.5,2.2,5.2,4.6,8.9,5.4
		c0.7,1.4,2.1,5.7-4.2,16.1c-2.2,3.7-3.6,6-3.8,10.8c-1.3-0.7-2.9-1.3-4.1-1.9c-1.3-0.6-2.6-1.4-3.8-2.2c-3.8-2.5-6.9-6.1-9.8-9.9
		c1.5-3.3,0-7.8-2.3-9.9c-2.2-2-4.6-3.4-7.5-3.9c-1.6-0.3-3.5,0.1-4.9-0.4c-0.3,4.5,0.7,7.5,3.1,10.9c2.5,3.5,7.9,5.1,10.5,4.6
		c2.9,3.9,6,7.9,10,10.5c1.3,0.8,2.6,1.5,3.9,2.2c1.4,0.7,2.8,1.4,4,2.2c0.3,0.2,0.6,0.5,1,0.7C192.9,54.9,197.2,58.4,200.2,63.1"/>
	<path class="st1" d="M196.8,65.9c-0.1,0.1,0,0-0.6-0.9c-0.9-1.4-0.9,5,1.1,7c2.6,2.5,6.2,6.1,6.2,6.1l-1.3-6.1L196.8,65.9z"/>
	<path class="st1" d="M213.3,53.4c-0.6,0.9-0.5,1.1-0.6,0.9l-5.6,6l-1.3,6.1c0,0,3.6-3.6,6.2-6C214.2,58.5,214.2,52.1,213.3,53.4"/>
	<path class="st2" d="M229.1,47.4c1.7,0,3.3,0.3,4.6,0.9c1.3,0.6,2.5,1.6,3.4,2.9c0.9,1.4,1.7,3.3,2.2,5.6c0.5,2.4,0.7,5.3,0.7,8.9
		c0,3.6-0.2,6.5-0.7,8.9c-0.5,2.4-1.2,4.2-2.2,5.6c-0.9,1.4-2.1,2.4-3.4,2.9c-1.3,0.6-2.9,0.9-4.6,0.9c-1.7,0-3.3-0.3-4.6-0.9
		c-1.3-0.6-2.5-1.6-3.4-2.9c-0.9-1.4-1.7-3.3-2.2-5.6c-0.5-2.4-0.7-5.3-0.7-8.9c0-3.6,0.2-6.5,0.7-8.9c0.5-2.4,1.2-4.2,2.2-5.6
		c0.9-1.4,2.1-2.4,3.4-2.9C225.8,47.7,227.4,47.4,229.1,47.4 M229.1,80.9c0.8,0,1.6-0.2,2.4-0.7c0.8-0.4,1.5-1.2,2-2.4
		c0.6-1.2,1-2.7,1.4-4.7c0.4-2,0.5-4.5,0.5-7.5c0-3-0.2-5.5-0.5-7.5c-0.4-2-0.8-3.5-1.4-4.7c-0.6-1.2-1.3-1.9-2-2.4
		c-0.8-0.4-1.6-0.7-2.4-0.7c-0.8,0-1.6,0.2-2.4,0.7c-0.8,0.4-1.5,1.2-2,2.4c-0.6,1.2-1,2.7-1.4,4.7c-0.4,2-0.5,4.5-0.5,7.5
		c0,3,0.2,5.6,0.5,7.5c0.4,2,0.8,3.5,1.4,4.7c0.6,1.2,1.3,1.9,2,2.4C227.5,80.7,228.3,80.9,229.1,80.9"/>
	<g>
		<path class="st2" d="M1.2,92.5L3,94.9h0.2v-2.4h0.9v2.4h0.2l1.8-2.4h1.1L5.1,95c0.8,0.1,1.3,0.6,1.6,1.4c0.2,0.5,0.4,1.1,0.6,1.5
			h-1c-0.2-0.3-0.3-0.8-0.5-1.2c-0.3-0.9-0.8-1.1-1.5-1.1H4.1v2.4H3.2v-2.4H3c-0.8,0-1.2,0.3-1.5,1.2c-0.2,0.5-0.3,0.9-0.5,1.2H0
			c0.2-0.4,0.4-1,0.6-1.5c0.3-0.9,0.8-1.3,1.6-1.4l-2.1-2.5H1.2z"/>
		<path class="st2" d="M10.9,92.5v2.3c0,0.9,0,1.4-0.1,2.2l0,0c0.3-0.7,0.5-1,0.9-1.7l1.7-2.8h1.1v5.4h-0.9v-2.3
			c0-0.9,0-1.3,0.1-2.2h0c-0.3,0.7-0.6,1.1-0.9,1.7c-0.5,0.8-1.1,1.9-1.7,2.8H10v-5.4H10.9z"/>
		<path class="st2" d="M22.2,92.5v5.4h-1v-4.6h-1.9v1.4c0,1.5-0.1,2.5-0.8,3c-0.3,0.2-0.6,0.3-1.1,0.3l-0.1-0.8
			c0.2,0,0.4-0.1,0.5-0.2c0.5-0.4,0.6-1.1,0.6-2.3v-2.2H22.2z"/>
		<path class="st2" d="M30.5,95.2c0,2-1.4,2.9-2.7,2.9c-1.5,0-2.6-1.1-2.6-2.8c0-1.8,1.2-2.9,2.7-2.9C29.5,92.4,30.5,93.5,30.5,95.2
			z M26.2,95.3c0,1.2,0.7,2.1,1.6,2.1c0.9,0,1.6-0.9,1.6-2.1c0-0.9-0.5-2.1-1.6-2.1S26.2,94.2,26.2,95.3z"/>
		<path class="st2" d="M34.5,92.5v2.3c0,0.9,0,1.4-0.1,2.2l0,0c0.3-0.7,0.5-1,0.9-1.7l1.7-2.8h1.1v5.4h-0.9v-2.3
			c0-0.9,0-1.3,0.1-2.2h0c-0.3,0.7-0.6,1.1-0.9,1.7c-0.5,0.8-1.1,1.9-1.7,2.8h-1.1v-5.4H34.5z M35.1,90.3c0,0.5,0.3,0.8,0.7,0.8
			c0.5,0,0.7-0.4,0.8-0.8h0.7c0,0.9-0.6,1.4-1.5,1.4c-1,0-1.4-0.6-1.4-1.4H35.1z"/>
		<path class="st2" d="M46.8,92.5v2.3h0.2l2-2.3h1.2L47.9,95c0.9,0.1,1.4,0.7,1.8,1.6c0.1,0.4,0.3,0.9,0.6,1.3h-1
			c-0.1-0.2-0.3-0.7-0.5-1.1c-0.4-0.9-0.9-1.3-1.8-1.3h-0.2v2.4h-1v-5.4H46.8z"/>
		<path class="st2" d="M57.9,95.2c0,2-1.4,2.9-2.7,2.9c-1.5,0-2.6-1.1-2.6-2.8c0-1.8,1.2-2.9,2.7-2.9C56.8,92.4,57.9,93.5,57.9,95.2
			z M53.6,95.3c0,1.2,0.7,2.1,1.6,2.1c0.9,0,1.6-0.9,1.6-2.1c0-0.9-0.5-2.1-1.6-2.1C54.1,93.2,53.6,94.2,53.6,95.3z"/>
		<path class="st2" d="M61,92.5h1.2l1,2.7c0.1,0.4,0.4,1.1,0.5,1.5h0c0.1-0.4,0.4-1.3,0.6-1.9l0.9-2.4h1.2l0.4,5.4h-0.9l-0.1-2.6
			c0-0.6-0.1-1.3-0.1-1.9h0c-0.1,0.5-0.3,0.9-0.6,1.8l-1,2.7h-0.7l-1-2.7c-0.2-0.5-0.4-1.3-0.5-1.8h0c0,0.6-0.1,1.3-0.1,1.9
			l-0.1,2.6h-0.9L61,92.5z"/>
		<path class="st2" d="M74.4,92.5v5.4h-1v-4.6h-2.5v4.6h-1v-5.4H74.4z"/>
		<path class="st2" d="M81.9,92.5v5.4h-1v-4.6h-1.9v1.4c0,1.5-0.1,2.5-0.8,3C78,97.9,77.7,98,77.2,98l-0.1-0.8
			c0.2,0,0.4-0.1,0.5-0.2c0.5-0.4,0.6-1.1,0.6-2.3v-2.2H81.9z"/>
		<path class="st2" d="M85.9,95.4c0,1.3,0.9,1.9,1.9,1.9c0.7,0,1.1-0.1,1.5-0.3l0.2,0.7c-0.3,0.2-0.9,0.3-1.8,0.3
			C86,98,85,97,85,95.3c0-1.6,1-2.9,2.5-2.9c1.8,0,2.2,1.5,2.2,2.5c0,0.2,0,0.4,0,0.5H85.9z M88.8,94.7c0-0.6-0.3-1.6-1.4-1.6
			c-1,0-1.4,0.9-1.5,1.6H88.8z"/>
		<path class="st2" d="M93.8,92.5v2.3H94l2-2.3h1.2L94.9,95c0.9,0.1,1.4,0.7,1.8,1.6c0.1,0.4,0.3,0.9,0.6,1.3h-1
			c-0.1-0.2-0.3-0.7-0.5-1.1c-0.4-0.9-0.9-1.3-1.8-1.3h-0.2v2.4h-1v-5.4H93.8z"/>
		<path class="st2" d="M103.8,97.7c-0.3,0.1-0.8,0.3-1.5,0.3c-1.6,0-2.7-1.1-2.7-2.8c0-1.7,1.1-2.9,2.9-2.9c0.6,0,1.1,0.1,1.4,0.3
			l-0.2,0.8c-0.2-0.1-0.6-0.3-1.1-0.3c-1.2,0-1.9,0.9-1.9,2c0,1.2,0.8,2,1.9,2c0.6,0,0.9-0.1,1.2-0.3L103.8,97.7z"/>
		<path class="st2" d="M115.2,92.5v4.7l0.6,0l-0.1,2.4h-0.8l0-1.7h-3.7l0,1.7h-0.8l0-2.4l0.5,0c0.2-0.3,0.4-0.7,0.5-1.1
			c0.2-0.7,0.3-1.4,0.3-2.2v-1.4H115.2z M112.5,94.2c0,0.7-0.1,1.4-0.3,2c-0.1,0.4-0.3,0.7-0.4,1h2.5v-3.9h-1.8V94.2z"/>
		<path class="st2" d="M122.9,92.5v5.4h-1v-4.6h-1.8v1.4c0,1.5-0.1,2.5-0.8,3c-0.3,0.2-0.6,0.3-1.1,0.3l-0.1-0.8
			c0.2,0,0.4-0.1,0.5-0.2c0.5-0.4,0.6-1.1,0.6-2.3v-2.2H122.9z"/>
		<path class="st2" d="M130.4,97.9h-1v-2.3h-0.7c-0.4,0-0.7,0.1-0.9,0.3c-0.4,0.3-0.5,1-0.8,1.5c-0.1,0.2-0.1,0.3-0.2,0.4h-1
			c0.1-0.2,0.2-0.4,0.3-0.6c0.2-0.5,0.4-1.2,0.8-1.6c0.2-0.1,0.4-0.3,0.6-0.3v0c-0.7-0.1-1.4-0.5-1.4-1.3c0-0.6,0.3-0.9,0.7-1.2
			c0.4-0.3,1.1-0.4,1.8-0.4c0.6,0,1.3,0.1,1.7,0.1V97.9z M129.4,93.2c-0.2,0-0.5-0.1-0.8-0.1c-0.7,0-1.5,0.2-1.5,0.9
			c0,0.7,0.9,0.9,1.4,0.9c0.4,0,0.6,0,0.8,0V93.2z"/>
		<path class="st2" d="M138.5,92.5l1.8,2.4h0.2v-2.4h0.9v2.4h0.2l1.8-2.4h1.1l-2.1,2.5c0.8,0.1,1.3,0.6,1.6,1.4
			c0.2,0.5,0.4,1.1,0.6,1.5h-1c-0.2-0.3-0.3-0.8-0.5-1.2c-0.3-0.9-0.8-1.1-1.5-1.1h-0.2v2.4h-0.9v-2.4h-0.2c-0.8,0-1.2,0.3-1.5,1.2
			c-0.2,0.5-0.3,0.9-0.5,1.2h-0.9c0.2-0.4,0.4-1,0.6-1.5c0.3-0.9,0.8-1.3,1.6-1.4l-2.1-2.5H138.5z"/>
		<path class="st2" d="M148.2,92.5v2.3c0,0.9,0,1.4-0.1,2.2l0,0c0.3-0.7,0.5-1,0.9-1.7l1.7-2.8h1.1v5.4H151v-2.3
			c0-0.9,0-1.3,0.1-2.2h0c-0.3,0.7-0.6,1.1-0.9,1.7c-0.5,0.8-1.1,1.9-1.7,2.8h-1.1v-5.4H148.2z"/>
		<path class="st2" d="M155.8,94.8h0.5c0.8,0,1.4-0.4,1.4-0.9c0-0.5-0.4-0.8-1-0.8c-0.4,0-0.9,0.1-1.3,0.4l-0.2-0.6
			c0.5-0.3,1.2-0.5,1.8-0.5c0.8,0,1.8,0.4,1.8,1.4c0,0.7-0.6,1.1-1.2,1.2v0c0.8,0.1,1.5,0.6,1.5,1.3c0,1.2-1.2,1.6-2.3,1.6
			c-0.6,0-1.3-0.2-1.8-0.4l0.3-0.7c0.4,0.2,0.9,0.4,1.4,0.4c0.8,0,1.3-0.4,1.3-0.9c0-0.7-0.8-0.9-1.6-0.9h-0.5V94.8z"/>
		<path class="st2" d="M163,92.5v2.2h2.6v-2.2h1v5.4h-1v-2.4H163v2.4h-1v-5.4H163z"/>
		<path class="st2" d="M170.9,92.5v2.3c0,0.9,0,1.4-0.1,2.2l0,0c0.3-0.7,0.5-1,0.9-1.7l1.7-2.8h1.1v5.4h-0.9v-2.3
			c0-0.9,0-1.3,0.1-2.2h0c-0.3,0.7-0.6,1.1-0.9,1.7c-0.5,0.8-1.1,1.9-1.7,2.8H170v-5.4H170.9z"/>
		<path class="st2" d="M183.1,92.5v2.3c0,0.9,0,1.4-0.1,2.2l0,0c0.3-0.7,0.5-1,0.9-1.7l1.7-2.8h1.1v5.4h-0.9v-2.3
			c0-0.9,0-1.3,0.1-2.2h0c-0.3,0.7-0.6,1.1-0.9,1.7c-0.5,0.8-1.1,1.9-1.7,2.8h-1.1v-5.4H183.1z"/>
		<path class="st2" d="M199.4,95.2c0,2-1.4,2.9-2.7,2.9c-1.5,0-2.6-1.1-2.6-2.8c0-1.8,1.2-2.9,2.7-2.9
			C198.3,92.4,199.4,93.5,199.4,95.2z M195.1,95.3c0,1.2,0.7,2.1,1.6,2.1c0.9,0,1.6-0.9,1.6-2.1c0-0.9-0.5-2.1-1.6-2.1
			C195.6,93.2,195.1,94.2,195.1,95.3z"/>
		<path class="st2" d="M206,92.5v0.8h-1.7v4.6h-1v-4.6h-1.7v-0.8H206z"/>
		<path class="st2" d="M212.6,92.5v4.7l0.6,0l-0.1,2.4h-0.8l0-1.7h-3.7l0,1.7h-0.8l0-2.4l0.5,0c0.2-0.3,0.4-0.7,0.5-1.1
			c0.2-0.7,0.3-1.4,0.3-2.2v-1.4H212.6z M209.9,94.2c0,0.7-0.1,1.4-0.3,2c-0.1,0.4-0.3,0.7-0.4,1h2.5v-3.9h-1.8V94.2z"/>
		<path class="st2" d="M217.1,92.5v1.8c0.2,0,0.5-0.1,0.9-0.1c1.2,0,2.3,0.5,2.3,1.8c0,0.6-0.2,1-0.6,1.2c-0.6,0.5-1.5,0.6-2.2,0.6
			c-0.5,0-1,0-1.4-0.1v-5.4H217.1z M217.1,97.3c0.2,0,0.4,0,0.7,0c0.7,0,1.6-0.3,1.6-1.1c0-0.9-0.8-1.1-1.5-1.1
			c-0.3,0-0.5,0-0.7,0.1V97.3z M222,92.5v5.4h-1v-5.4H222z"/>
		<path class="st2" d="M225.9,92.5l0.8,1.2c0.2,0.3,0.4,0.6,0.5,0.9h0c0.2-0.3,0.4-0.6,0.5-0.9l0.8-1.1h1.1l-1.8,2.6l1.9,2.8h-1.1
			l-0.8-1.2c-0.2-0.3-0.4-0.6-0.6-0.9h0c-0.2,0.3-0.4,0.6-0.6,0.9l-0.8,1.2h-1.1l1.9-2.8l-1.8-2.6H225.9z"/>
		<path class="st2" d="M235.4,97.9l-0.1-0.7h0c-0.3,0.4-0.9,0.8-1.6,0.8c-1.1,0-1.6-0.8-1.6-1.6c0-1.3,1.2-2,3.2-2v-0.1
			c0-0.4-0.1-1.2-1.2-1.2c-0.5,0-1,0.2-1.4,0.4l-0.2-0.6c0.4-0.3,1.1-0.5,1.8-0.5c1.6,0,2.1,1.1,2.1,2.2v2c0,0.5,0,0.9,0.1,1.3
			H235.4z M235.3,95.2c-1.1,0-2.3,0.2-2.3,1.2c0,0.6,0.4,0.9,0.9,0.9c0.7,0,1.1-0.4,1.3-0.9c0-0.1,0.1-0.2,0.1-0.3V95.2z"/>
	</g>
</g>
</svg>
