<?xml version="1.0" encoding="utf-8"?>
<!-- Generator: Adobe Illustrator 19.0.0, SVG Export Plug-In . SVG Version: 6.00 Build 0)  -->
<svg version="1.1" id="Layer_1" xmlns="http://www.w3.org/2000/svg" xmlns:xlink="http://www.w3.org/1999/xlink" x="0px" y="0px"
	 viewBox="-339 164.9 512 512" style="enable-background:new -339 164.9 512 512;" xml:space="preserve">
<style type="text/css">
	.st0{fill:#7AA5DA;}
	.st1{fill:#DADDE0;}
	.st2{fill:#FFFFFF;}
</style>
<g>
	<path class="st0" d="M-9.4,341.8l-147,91.2c-2.6,1.6-3.8,4.8-2.9,7.7l18.7,79.4c0.4,1.3,2.3,1.2,2.5-0.2l5.9-58.5
		c0.2-1.7,1-3.2,2.2-4.3L-5.5,347C-2.6,344.3-6,339.7-9.4,341.8z"/>
	<path class="st0" d="M-83,164.9c-141.4,0-256,114.6-256,256s114.6,256,256,256s256-114.6,256-256S58.4,164.9-83,164.9z M46.6,314.1
		L0.8,532.9c-2.1,10.3-14.2,14.9-22.6,8.7l-69.1-50.7l-35.2,36c-6.2,6.3-16.9,3.7-19.5-4.7l-25.4-80.7l-68.1-20.1
		c-8.9-2.6-9.5-15.1-0.8-18.5l268-104.4C38.3,294.4,48.8,303.4,46.6,314.1z"/>
</g>
<g>
	<path class="st1" d="M-110.4,527.6c-0.3,0.3-0.6,0.5-0.9,0.7v0C-111,528.1-110.7,527.9-110.4,527.6z"/>
	<path class="st1" d="M-111.3,528.3L-111.3,528.3C-111.3,528.3-111.3,528.3-111.3,528.3C-111.4,528.3-111.4,528.3-111.3,528.3z"/>
	<path class="st1" d="M-113.4,529.4c0.7-0.3,1.4-0.7,2-1.1C-112,528.8-112.7,529.1-113.4,529.4z"/>
	<path class="st1" d="M-119,530.2c1.5,0.2,3.1,0,4.6-0.4c-1.1,0.3-2.2,0.5-3.3,0.5c-0.3,0-0.7,0-1-0.1
		C-118.9,530.2-118.9,530.2-119,530.2z"/>
</g>
<g>
	<path class="st2" d="M-117.8,530.3c-0.3,0-0.7,0-1-0.1C-118.5,530.3-118.1,530.3-117.8,530.3z"/>
	<path class="st2" d="M-119,530.2c0.1,0,0.1,0,0.2,0c-0.4,0-0.7-0.1-1-0.1C-119.6,530.2-119.3,530.2-119,530.2z"/>
</g>
<g>
	<path class="st1" d="M-119,530.2c-0.3,0-0.6-0.1-0.8-0.1c-0.1,0-0.2,0-0.3-0.1C-119.8,530.1-119.4,530.2-119,530.2z"/>
	<path class="st1" d="M-121.5,529.7c0.4,0.1,0.8,0.2,1.1,0.3c-0.2,0-0.3-0.1-0.5-0.1c-0.1,0-0.1,0-0.2-0.1
		C-121.2,529.8-121.3,529.7-121.5,529.7z"/>
</g>
<g>
	<path class="st2" d="M-120.8,529.9c0.2,0,0.3,0.1,0.5,0.1C-120.5,530-120.7,529.9-120.8,529.9z"/>
	<path class="st2" d="M-121.5,529.7c0.2,0.1,0.3,0.1,0.5,0.2c-0.3-0.1-0.5-0.1-0.8-0.2C-121.7,529.6-121.6,529.7-121.5,529.7z"/>
</g>
<path class="st1" d="M-121.5,529.7c-0.1,0-0.2-0.1-0.3-0.1c0,0-0.1,0-0.1,0v0C-121.7,529.6-121.6,529.6-121.5,529.7z"/>
</svg>
